<?xml version="1.0" encoding="utf-8"?>
<!-- Svg Vector Icons : http://www.onlinewebfonts.com/icon -->
<!DOCTYPE svg PUBLIC "-//W3C//DTD SVG 1.1//EN" "http://www.w3.org/Graphics/SVG/1.1/DTD/svg11.dtd">
<svg version="1.1" xmlns="http://www.w3.org/2000/svg" xmlns:xlink="http://www.w3.org/1999/xlink" x="0px" y="0px" viewBox="0 0 256 256" enable-background="new 0 0 256 256" xml:space="preserve">
<metadata> Svg Vector Icons : http://www.onlinewebfonts.com/icon </metadata>
<g><g><path fill="#000000" d="M178.6,153.2c-14,0-25.3,11.3-25.3,25.3s11.3,25.3,25.3,25.3c14,0,25.3-11.3,25.3-25.3C203.8,164.6,192.5,153.2,178.6,153.2z M178.6,186.9c-4.6,0-8.4-3.8-8.4-8.4c0-4.6,3.8-8.4,8.4-8.4c4.6,0,8.4,3.8,8.4,8.4C187,183.2,183.2,186.9,178.6,186.9z"/><path fill="#000000" d="M239.3,160.5c-2.4-0.5-5.1-1-7.8-1.4c-0.5-1.4-1.1-2.8-1.7-4.2c1.7-2.3,3.2-4.5,4.6-6.6c2.2-3.3,1.7-7.7-1.1-10.5L219.4,124c-1.6-1.6-3.8-2.5-6-2.5c-1.6,0-3.2,0.4-4.6,1.3c-2.1,1.3-4.3,2.9-6.6,4.5c-1.4-0.6-2.8-1.2-4.2-1.7c-0.5-2.8-0.9-5.5-1.5-7.9c-0.8-3.9-4.3-6.7-8.2-6.7h-19.5c-4,0-7.4,2.8-8.2,6.7c-0.5,2.4-1,5.1-1.5,7.9c-1.4,0.5-2.8,1.1-4.2,1.7c-2.3-1.7-4.5-3.2-6.6-4.5c-1.4-0.9-3-1.3-4.6-1.3c-2.2,0-4.3,0.8-6,2.5l-13.7,13.7c-2.8,2.8-3.3,7.2-1.1,10.5c1.3,2.1,2.9,4.3,4.5,6.6c-0.6,1.4-1.2,2.8-1.7,4.2c-2.8,0.5-5.5,0.9-7.9,1.5c-3.9,0.8-6.7,4.3-6.7,8.2v19.5c0,4,2.8,7.4,6.7,8.2c2.4,0.5,5.1,1,7.9,1.5c0.5,1.4,1.1,2.8,1.7,4.2c-1.7,2.3-3.2,4.5-4.5,6.6c-2.2,3.3-1.7,7.7,1.1,10.5l13.7,13.7c1.6,1.6,3.8,2.5,6,2.5c1.6,0,3.2-0.4,4.6-1.3c2.1-1.3,4.3-2.9,6.6-4.6c1.4,0.6,2.8,1.2,4.2,1.7c0.5,2.8,0.9,5.5,1.5,7.9c0.8,3.9,4.3,6.7,8.2,6.7h19.5c4,0,7.4-2.8,8.2-6.7c0.5-2.4,1-5.1,1.5-7.9c1.4-0.5,2.8-1.1,4.2-1.7c2.3,1.6,4.5,3.2,6.6,4.5c1.4,0.9,3,1.4,4.6,1.4c2.2,0,4.3-0.8,6-2.5l13.7-13.7c2.8-2.8,3.3-7.2,1.1-10.6c-1.4-2.1-2.9-4.3-4.5-6.6c0.7-1.4,1.2-2.8,1.8-4.2c2.8-0.5,5.4-0.9,7.8-1.4c3.9-0.8,6.7-4.3,6.7-8.3v-19.5C246,164.8,243.2,161.4,239.3,160.5z M229.1,186.8c-3.3,0.7-6.9,1.3-10.8,1.8c-1,3.8-2.5,7.4-4.5,10.7c2.4,3.2,4.5,6.1,6.3,8.9l-11.8,11.8c-2.8-1.8-5.8-3.9-8.9-6.3c-3.3,2-6.9,3.5-10.7,4.5c-0.6,3.9-1.2,7.6-1.9,10.8h-16.7c-0.7-3.2-1.3-6.9-1.9-10.8c-3.8-1-7.4-2.5-10.7-4.4c-3.2,2.4-6.2,4.5-9,6.3l-11.8-11.8c1.8-2.8,3.9-5.8,6.3-8.9c-1.9-3.3-3.4-6.9-4.4-10.7c-3.9-0.6-7.6-1.2-10.8-1.9v-16.7c3.2-0.7,6.9-1.3,10.8-1.9c1-3.8,2.5-7.4,4.4-10.7c-2.4-3.2-4.5-6.2-6.3-8.9l11.8-11.8c2.8,1.8,5.8,3.9,9,6.3c3.3-2,6.9-3.5,10.7-4.4c0.6-3.9,1.2-7.6,1.9-10.8h16.7c0.7,3.2,1.3,6.9,1.9,10.8c3.8,1,7.4,2.5,10.7,4.4c3.2-2.4,6.2-4.5,8.9-6.3l11.8,11.8c-1.8,2.8-3.9,5.8-6.3,8.9c2,3.3,3.5,6.9,4.4,10.7c3.9,0.5,7.5,1.2,10.8,1.8L229.1,186.8L229.1,186.8z"/><path fill="#000000" d="M111.3,213c-1.1,0-2.2,0-3.3,0c-52.1,0-77.7-13.3-77.7-13.3c-2.6-1.1-4.6-3.7-4.5-5.7c0.7-15.5,5.5-23.4,5.5-23.4c4.5-11.7,16.2-22.5,31.2-24.1l3.7,0c1.3,0,3.3,0.4,4.5,0.9c0,0,3.1,1.4,5.9,2.4c8.2,2.8,21.7,4.5,31.6,4.5c1.4,0,2.9,0,4.4-0.1c0.7-1.8,1.4-3.5,2.1-5.2c-1.7-2.3-3.2-4.6-4.6-6.7c-0.6,0-1.3,0-1.9,0c-11.8,0-22.9-2.4-32.6-6.5c-3.3-1.4-7-3.5-7-3.5c-1.4-0.8-3.8-1.4-5.3-1.3l-4.4,0c-17.9,2.4-36.7,18.2-42.1,35.4c0,0-5.7,11.6-6.5,34.4c0,3,2.3,6.7,5.4,8.3c0,0,30.5,19.5,92.5,19.5c0.5,0,1,0,1.6,0c-2.7-3.5-3-8.4-0.6-12.2C109.7,215.4,110.5,214.2,111.3,213z"/><path fill="#000000" d="M107.9,122.4c31,0,56.2-25.1,56.2-56.2c0-31-25.2-56.2-56.2-56.2c-31,0-56.2,25.1-56.2,56.2C51.7,97.2,76.9,122.4,107.9,122.4z M107.9,25.7c22.4,0,40.5,18.2,40.5,40.5s-18.2,40.5-40.5,40.5S67.4,88.6,67.4,66.2S85.5,25.7,107.9,25.7z"/></g></g>
</svg>